<svg width="38" height="30" viewBox="0 0 38 30" fill="none" xmlns="http://www.w3.org/2000/svg">
<path d="M34.0312 0.1875H3.09375C1.35352 0.1875 0 1.60547 0 3.28125V4.3125H37.125V3.28125C37.125 1.60547 35.707 0.1875 34.0312 0.1875ZM0 25.9688C0 27.709 1.35352 29.0625 3.09375 29.0625H34.0312C35.707 29.0625 37.125 27.709 37.125 25.9688V6.375H0V25.9688ZM22.6875 11.0156C22.6875 10.7578 22.8809 10.5 23.2031 10.5H32.4844C32.7422 10.5 33 10.7578 33 11.0156V12.0469C33 12.3691 32.7422 12.5625 32.4844 12.5625H23.2031C22.8809 12.5625 22.6875 12.3691 22.6875 12.0469V11.0156ZM22.6875 15.1406C22.6875 14.8828 22.8809 14.625 23.2031 14.625H32.4844C32.7422 14.625 33 14.8828 33 15.1406V16.1719C33 16.4941 32.7422 16.6875 32.4844 16.6875H23.2031C22.8809 16.6875 22.6875 16.4941 22.6875 16.1719V15.1406ZM22.6875 19.2656C22.6875 19.0078 22.8809 18.75 23.2031 18.75H32.4844C32.7422 18.75 33 19.0078 33 19.2656V20.2969C33 20.6191 32.7422 20.8125 32.4844 20.8125H23.2031C22.8809 20.8125 22.6875 20.6191 22.6875 20.2969V19.2656ZM11.3438 10.5C13.5996 10.5 15.4688 12.3691 15.4688 14.625C15.4688 16.9453 13.5996 18.75 11.3438 18.75C9.02344 18.75 7.21875 16.9453 7.21875 14.625C7.21875 12.3691 9.02344 10.5 11.3438 10.5ZM4.31836 23.7129C4.83398 22.0371 6.38086 20.8125 8.25 20.8125H8.76562C9.53906 21.1992 10.377 21.3281 11.3438 21.3281C12.2461 21.3281 13.084 21.1992 13.8574 20.8125H14.4375C16.2422 20.8125 17.7891 22.0371 18.3047 23.7129C18.5625 24.3574 17.9824 24.9375 17.3379 24.9375H5.28516C4.64062 24.9375 4.06055 24.293 4.31836 23.7129Z" fill="#333333"/>
</svg>
