<svg width="23" height="23" viewBox="0 0 23 23" fill="none" xmlns="http://www.w3.org/2000/svg">
<path d="M13.2773 20.8477L12.1094 21.9648C11.8724 22.2018 11.5846 22.3203 11.2461 22.3203C10.9076 22.3203 10.6198 22.2018 10.3828 21.9648L0.53125 12.1133C0.294271 11.8763 0.175781 11.5885 0.175781 11.25C0.175781 10.9115 0.294271 10.6237 0.53125 10.3867L10.3828 0.535156C10.6198 0.298177 10.9076 0.179688 11.2461 0.179688C11.5846 0.179688 11.8724 0.298177 12.1094 0.535156L13.2773 1.65234C13.5143 1.88932 13.6159 2.17708 13.582 2.51562C13.582 2.85417 13.4635 3.14193 13.2266 3.37891L7.13281 9.21875H21.707C22.0456 9.21875 22.3333 9.33724 22.5703 9.57422C22.8073 9.8112 22.9258 10.099 22.9258 10.4375V12.0625C22.9258 12.401 22.8073 12.6888 22.5703 12.9258C22.3333 13.1628 22.0456 13.2812 21.707 13.2812H7.13281L13.2266 19.1211C13.4635 19.3581 13.582 19.6458 13.582 19.9844C13.6159 20.3229 13.5143 20.6107 13.2773 20.8477Z" fill="white"/>
</svg>
