<svg width="465" height="45" viewBox="0 0 465 45" fill="none" xmlns="http://www.w3.org/2000/svg">
<rect x="19" y="20" width="423" height="5" fill="white"/>
<circle cx="22.5" cy="22.5" r="22.5" fill="white"/>
<circle cx="127.5" cy="22.5" r="22.5" fill="white"/>
<circle cx="127.5" cy="22.5" r="18.5" fill="#EBEBEB"/>
<circle cx="232.5" cy="22.5" r="22.5" fill="white"/>
<circle cx="232.5" cy="22.5" r="18.5" fill="#C4C4C4"/>
<circle cx="232.5" cy="22.5" r="18.5" fill="#27ADE6"/>
<circle cx="337.5" cy="22.5" r="22.5" fill="white"/>
<circle cx="442.5" cy="22.5" r="22.5" fill="white"/>
<circle cx="337.5" cy="22.5" r="18.5" fill="#27ADE6"/>
<circle cx="442.5" cy="22.5" r="18.5" fill="#27ADE6"/>
<circle cx="22.5" cy="22.5" r="18.5" fill="#27ADE6"/>
<circle cx="127.5" cy="22.5" r="18.5" fill="#27ADE6"/>
<path d="M19.4766 30.6133L12.3008 23.4805C12.1003 23.2799 12 23.0221 12 22.707C12 22.3919 12.1003 22.1341 12.3008 21.9336L13.8906 20.3867C14.0911 20.1576 14.3346 20.043 14.6211 20.043C14.9362 20.043 15.2083 20.1576 15.4375 20.3867L20.25 25.1992L30.5625 14.8867C30.7917 14.6576 31.0495 14.543 31.3359 14.543C31.651 14.543 31.9089 14.6576 32.1094 14.8867L33.6992 16.4336C33.8997 16.6341 34 16.8919 34 17.207C34 17.5221 33.8997 17.7799 33.6992 17.9805L21.0234 30.6133C20.8229 30.8424 20.5651 30.957 20.25 30.957C19.9349 30.957 19.6771 30.8424 19.4766 30.6133Z" fill="white"/>
</svg>
