<svg width="29" height="21" viewBox="0 0 29 21" fill="none" xmlns="http://www.w3.org/2000/svg">
<path d="M9.51709 20.5078L0.384277 11.4297C0.129069 11.1745 0.00146484 10.8464 0.00146484 10.4453C0.00146484 10.0443 0.129069 9.71615 0.384277 9.46094L2.40771 7.49219C2.66292 7.20052 2.97282 7.05469 3.3374 7.05469C3.73844 7.05469 4.0848 7.20052 4.37646 7.49219L10.5015 13.6172L23.6265 0.492188C23.9181 0.200521 24.2463 0.0546875 24.6108 0.0546875C25.0119 0.0546875 25.34 0.200521 25.5952 0.492188L27.6187 2.46094C27.8739 2.71615 28.0015 3.04427 28.0015 3.44531C28.0015 3.84635 27.8739 4.17448 27.6187 4.42969L11.4858 20.5078C11.2306 20.7995 10.9025 20.9453 10.5015 20.9453C10.1004 20.9453 9.7723 20.7995 9.51709 20.5078Z" fill="#4EAB06"/>
</svg>
