<svg width="465" height="45" viewBox="0 0 465 45" fill="none" xmlns="http://www.w3.org/2000/svg">
<rect x="19" y="20" width="423" height="5" fill="white"/>
<circle cx="22.5" cy="22.5" r="22.5" fill="white"/>
<circle cx="127.5" cy="22.5" r="22.5" fill="white"/>
<circle cx="127.5" cy="22.5" r="18.5" fill="#EBEBEB"/>
<circle cx="232.5" cy="22.5" r="22.5" fill="white"/>
<circle cx="232.5" cy="22.5" r="18.5" fill="#C4C4C4"/>
<circle cx="232.5" cy="22.5" r="18.5" fill="#27ADE6"/>
<path d="M229.477 30.6133L222.301 23.4805C222.1 23.2799 222 23.0221 222 22.707C222 22.3919 222.1 22.1341 222.301 21.9336L223.891 20.3867C224.091 20.1576 224.335 20.043 224.621 20.043C224.936 20.043 225.208 20.1576 225.438 20.3867L230.25 25.1992L240.562 14.8867C240.792 14.6576 241.049 14.543 241.336 14.543C241.651 14.543 241.909 14.6576 242.109 14.8867L243.699 16.4336C243.9 16.6341 244 16.8919 244 17.207C244 17.5221 243.9 17.7799 243.699 17.9805L231.023 30.6133C230.823 30.8424 230.565 30.957 230.25 30.957C229.935 30.957 229.677 30.8424 229.477 30.6133Z" fill="white"/>
<circle cx="337.5" cy="22.5" r="22.5" fill="white"/>
<circle cx="442.5" cy="22.5" r="22.5" fill="white"/>
<circle cx="337.5" cy="22.5" r="18.5" fill="#27ADE6"/>
<circle cx="442.5" cy="22.5" r="18.5" fill="#27ADE6"/>
<path d="M334.477 30.6133L327.301 23.4805C327.1 23.2799 327 23.0221 327 22.707C327 22.3919 327.1 22.1341 327.301 21.9336L328.891 20.3867C329.091 20.1576 329.335 20.043 329.621 20.043C329.936 20.043 330.208 20.1576 330.438 20.3867L335.25 25.1992L345.562 14.8867C345.792 14.6576 346.049 14.543 346.336 14.543C346.651 14.543 346.909 14.6576 347.109 14.8867L348.699 16.4336C348.9 16.6341 349 16.8919 349 17.207C349 17.5221 348.9 17.7799 348.699 17.9805L336.023 30.6133C335.823 30.8424 335.565 30.957 335.25 30.957C334.935 30.957 334.677 30.8424 334.477 30.6133Z" fill="white"/>
<circle cx="22.5" cy="22.5" r="18.5" fill="#27ADE6"/>
<circle cx="127.5" cy="22.5" r="18.5" fill="#27ADE6"/>
<path d="M124.477 30.6133L117.301 23.4805C117.1 23.2799 117 23.0221 117 22.707C117 22.3919 117.1 22.1341 117.301 21.9336L118.891 20.3867C119.091 20.1576 119.335 20.043 119.621 20.043C119.936 20.043 120.208 20.1576 120.438 20.3867L125.25 25.1992L135.562 14.8867C135.792 14.6576 136.049 14.543 136.336 14.543C136.651 14.543 136.909 14.6576 137.109 14.8867L138.699 16.4336C138.9 16.6341 139 16.8919 139 17.207C139 17.5221 138.9 17.7799 138.699 17.9805L126.023 30.6133C125.823 30.8424 125.565 30.957 125.25 30.957C124.935 30.957 124.677 30.8424 124.477 30.6133Z" fill="white"/>
<path d="M19.4766 30.6133L12.3008 23.4805C12.1003 23.2799 12 23.0221 12 22.707C12 22.3919 12.1003 22.1341 12.3008 21.9336L13.8906 20.3867C14.0911 20.1576 14.3346 20.043 14.6211 20.043C14.9362 20.043 15.2083 20.1576 15.4375 20.3867L20.25 25.1992L30.5625 14.8867C30.7917 14.6576 31.0495 14.543 31.3359 14.543C31.651 14.543 31.9089 14.6576 32.1094 14.8867L33.6992 16.4336C33.8997 16.6341 34 16.8919 34 17.207C34 17.5221 33.8997 17.7799 33.6992 17.9805L21.0234 30.6133C20.8229 30.8424 20.5651 30.957 20.25 30.957C19.9349 30.957 19.6771 30.8424 19.4766 30.6133Z" fill="white"/>
</svg>
