<svg width="25" height="26" viewBox="0 0 25 26" fill="none" xmlns="http://www.w3.org/2000/svg">
<path d="M22.3594 1.14062C22.7656 0.921875 23.1562 0.953125 23.5312 1.23438C23.9375 1.48437 24.1094 1.84375 24.0469 2.3125L20.6719 22.5625C20.6094 22.9062 20.4062 23.1719 20.0625 23.3594C19.75 23.5469 19.4375 23.5625 19.125 23.4062L13.2656 20.9688L10.2656 24.5781C9.95312 24.9844 9.54688 25.0938 9.04688 24.9062C8.54688 24.75 8.29688 24.4062 8.29688 23.875V20.0781L19.5938 6.34375C19.6875 6.1875 19.6719 6.0625 19.5469 5.96875C19.4219 5.84375 19.2969 5.82812 19.1719 5.92188L5.71875 17.7812L0.75 15.7188C0.3125 15.5312 0.078125 15.2031 0.046875 14.7344C0.015625 14.2656 0.203125 13.9219 0.609375 13.7031L22.3594 1.14062Z" fill="white"/>
</svg>
