<svg width="114" height="115" viewBox="0 0 114 115" fill="none" xmlns="http://www.w3.org/2000/svg">
<path d="M110.438 46.1172C112.812 49.3828 114 53.0938 114 57.25C114 61.4062 112.812 65.1914 110.438 68.6055C108.062 71.8711 105.02 74.1719 101.309 75.5078C102.941 79.0703 103.387 82.9297 102.645 87.0859C102.051 91.0938 100.27 94.582 97.3008 97.5508C94.332 100.52 90.8438 102.301 86.8359 102.895C82.8281 103.637 78.9688 103.191 75.2578 101.559C74.3672 104.082 73.0312 106.234 71.25 108.016C69.4688 109.945 67.3164 111.43 64.793 112.469C62.418 113.656 59.8203 114.25 57 114.25C52.8438 114.25 49.0586 113.062 45.6445 110.688C42.3789 108.312 40.0781 105.27 38.7422 101.559C35.0312 103.191 31.1719 103.637 27.1641 102.895C23.1562 102.301 19.668 100.52 16.6992 97.5508C13.7305 94.582 11.875 91.0938 11.1328 87.0859C10.5391 82.9297 11.0586 79.0703 12.6914 75.5078C8.98047 74.1719 5.9375 71.8711 3.5625 68.6055C1.1875 65.1914 0 61.4062 0 57.25C0 53.0938 1.1875 49.3828 3.5625 46.1172C5.9375 42.7031 8.98047 40.3281 12.6914 38.9922C11.0586 35.4297 10.5391 31.6445 11.1328 27.6367C11.875 23.4805 13.7305 19.918 16.6992 16.9492C19.668 13.9805 23.1562 12.1992 27.1641 11.6055C31.3203 10.8633 35.1797 11.3086 38.7422 12.9414C40.0781 9.23047 42.3789 6.1875 45.6445 3.8125C49.0586 1.4375 52.8438 0.25 57 0.25C61.1563 0.25 64.8672 1.4375 68.1328 3.8125C71.5469 6.1875 73.9219 9.23047 75.2578 12.9414C78.8203 11.3086 82.6055 10.8633 86.6133 11.6055C90.7695 12.1992 94.332 13.9805 97.3008 16.9492C100.27 19.918 102.051 23.4805 102.645 27.6367C103.387 31.6445 102.941 35.4297 101.309 38.9922C105.02 40.3281 108.062 42.7031 110.438 46.1172ZM81.7148 47.4531C82.9023 46.2656 82.9023 45.0781 81.7148 43.8906L75.9258 38.1016C74.8867 36.9141 73.7734 36.9141 72.5859 38.1016L50.9883 59.6992L41.6367 50.125C40.4492 48.9375 39.2617 48.9375 38.0742 50.125L32.2852 55.9141C31.0977 57.1016 31.0977 58.2148 32.2852 59.2539L49.207 76.3984C50.2461 77.4375 51.3594 77.4375 52.5469 76.3984L81.7148 47.4531Z" fill="#4EAB06"/>
</svg>
