<svg width="30" height="24" viewBox="0 0 30 24" fill="none" xmlns="http://www.w3.org/2000/svg">
<path d="M14.6445 6.76562C14.7799 6.69792 14.9154 6.66406 15.0508 6.66406C15.1862 6.66406 15.3216 6.69792 15.457 6.76562L24.8008 14.4844V22.8125C24.8008 23.0495 24.7161 23.2357 24.5469 23.3711C24.4115 23.5404 24.2253 23.625 23.9883 23.625H18.3008C18.0638 23.625 17.8607 23.5404 17.6914 23.3711C17.556 23.2018 17.4883 23.0156 17.4883 22.8125V17.9375C17.4883 17.8021 17.4544 17.6667 17.3867 17.5312C17.319 17.3958 17.2174 17.2943 17.082 17.2266C16.9466 17.1589 16.8112 17.125 16.6758 17.125H13.4258C13.1888 17.125 12.9857 17.2096 12.8164 17.3789C12.681 17.5143 12.6133 17.7005 12.6133 17.9375V22.8125C12.6133 23.0156 12.5286 23.2018 12.3594 23.3711C12.224 23.5404 12.0378 23.625 11.8008 23.625H6.11328C5.8763 23.625 5.67318 23.5404 5.50391 23.3711C5.36849 23.2357 5.30078 23.0495 5.30078 22.8125V14.4844L14.6445 6.76562ZM29.4727 11.9961C29.6081 12.1315 29.6758 12.3008 29.6758 12.5039C29.6758 12.6393 29.625 12.7578 29.5234 12.8594L28.2539 14.4336C28.1185 14.6029 27.9661 14.6875 27.7969 14.6875C27.6276 14.6875 27.4922 14.6367 27.3906 14.5352L15.457 4.68359C15.3216 4.61589 15.1862 4.58203 15.0508 4.58203C14.9154 4.58203 14.7799 4.61589 14.6445 4.68359L2.71094 14.5352C2.60938 14.6367 2.49089 14.6875 2.35547 14.6875C2.15234 14.6875 1.98307 14.6029 1.84766 14.4336L0.578125 12.8594C0.476562 12.7578 0.425781 12.6393 0.425781 12.5039C0.425781 12.3008 0.49349 12.1315 0.628906 11.9961L13.4766 1.43359C13.9505 1.0612 14.4753 0.875 15.0508 0.875C15.6263 0.875 16.1341 1.0612 16.5742 1.43359L21.1445 5.19141V1.48438C21.1445 1.3151 21.1953 1.17969 21.2969 1.07812C21.4323 0.942708 21.5846 0.875 21.7539 0.875H24.5977C24.7669 0.875 24.9023 0.942708 25.0039 1.07812C25.1393 1.17969 25.207 1.3151 25.207 1.48438V8.54297L29.4727 11.9961Z" fill="white"/>
</svg>
