<svg width="25" height="29" viewBox="0 0 25 29" fill="none" xmlns="http://www.w3.org/2000/svg">
<path d="M17.3672 17.125C15.7812 17.125 15.0703 18 12.5 18C9.875 18 9.16406 17.125 7.57812 17.125C3.53125 17.125 0.25 20.4609 0.25 24.5078V25.875C0.25 27.3516 1.39844 28.5 2.875 28.5H22.125C23.5469 28.5 24.75 27.3516 24.75 25.875V24.5078C24.75 20.4609 21.4141 17.125 17.3672 17.125ZM22.125 25.875H2.875V24.5078C2.875 21.8828 4.95312 19.75 7.57812 19.75C8.39844 19.75 9.65625 20.625 12.5 20.625C15.2891 20.625 16.5469 19.75 17.3672 19.75C19.9922 19.75 22.125 21.8828 22.125 24.5078V25.875ZM12.5 16.25C16.8203 16.25 20.375 12.75 20.375 8.375C20.375 4.05469 16.8203 0.5 12.5 0.5C8.125 0.5 4.625 4.05469 4.625 8.375C4.625 12.75 8.125 16.25 12.5 16.25ZM12.5 3.125C15.3438 3.125 17.75 5.53125 17.75 8.375C17.75 11.2734 15.3438 13.625 12.5 13.625C9.60156 13.625 7.25 11.2734 7.25 8.375C7.25 5.53125 9.60156 3.125 12.5 3.125Z" fill="#333333" fill-opacity="0.25"/>
</svg>
