<svg width="29" height="29" viewBox="0 0 29 29" fill="none" xmlns="http://www.w3.org/2000/svg">
<path d="M27.0312 1.75781L21.8906 0.609375C20.6875 0.335938 19.4844 0.9375 19.0469 2.03125L16.6406 7.60938C16.2031 8.59375 16.4766 9.79688 17.3516 10.5078L19.5391 12.3125C18.0078 15.1562 15.6016 17.5078 12.7578 19.0938L10.9531 16.9062C10.2422 16.0312 9.03906 15.7578 8.05469 16.1953L2.47656 18.5469C1.38281 19.0391 0.78125 20.2422 1.05469 21.4453L2.20312 26.5859C2.47656 27.7344 3.51562 28.5 4.66406 28.5C18.0625 28.5 29 17.6719 29 4.21875C29 3.07031 28.1797 2.03125 27.0312 1.75781ZM4.77344 25.875L3.625 20.9531L8.98438 18.6562L12.0469 22.375C17.4609 19.8047 20.25 17.0156 22.8203 11.6016L19.1016 8.53906L21.3984 3.17969L26.375 4.32812C26.3203 16.1953 16.6406 25.8203 4.77344 25.875Z" fill="#333333" fill-opacity="0.25"/>
</svg>
