<svg width="27" height="24" viewBox="0 0 27 24" fill="none" xmlns="http://www.w3.org/2000/svg">
<path d="M3.85938 3.97266C6.39844 1.90755 9.46224 0.875 13.0508 0.875C16.6393 0.875 19.7031 1.90755 22.2422 3.97266C24.7812 6.03776 26.0508 8.52604 26.0508 11.4375C26.0508 14.349 24.7812 16.8372 22.2422 18.9023C19.7031 20.9674 16.6393 22 13.0508 22C11.1549 22 9.34375 21.6784 7.61719 21.0352C5.41667 22.7617 3.02995 23.625 0.457031 23.625C0.389323 23.625 0.321615 23.5911 0.253906 23.5234C0.186198 23.4896 0.135417 23.4388 0.101562 23.3711C0.0338542 23.2018 0.0507812 23.0495 0.152344 22.9141C0.28776 22.8125 0.490885 22.5755 0.761719 22.2031C1.06641 21.8646 1.45573 21.2891 1.92969 20.4766C2.40365 19.6302 2.74219 18.8346 2.94531 18.0898C1.01562 16.1602 0.0507812 13.9427 0.0507812 11.4375C0.0507812 8.52604 1.32031 6.03776 3.85938 3.97266Z" fill="white"/>
</svg>
