<svg width="33" height="34" viewBox="0 0 33 34" fill="none" xmlns="http://www.w3.org/2000/svg">
<path d="M0 16.625C0 7.53711 7.34766 0.125 16.5 0.125C25.5879 0.125 33 7.53711 33 16.625C33 25.7773 25.5879 33.125 16.5 33.125C7.34766 33.125 0 25.7773 0 16.625ZM10.8281 18.6875H4.25391C5.15625 23.9082 9.2168 27.9688 14.4375 28.8711V23.2637L10.8281 18.6875ZM18.5625 23.2637V28.8711C23.7188 27.9688 27.7793 23.9082 28.6816 18.6875H22.1074L18.5625 23.2637ZM22.6875 14.5625H28.6816C27.7148 8.76172 22.623 4.25 16.5 4.25C10.3125 4.25 5.2207 8.76172 4.25391 14.5625H10.3125L10.7637 13.6602C11.0859 12.9512 11.7949 12.5 12.5684 12.5H20.3672C21.1406 12.5 21.8496 12.9512 22.1719 13.6602L22.6875 14.5625Z" fill="#333333"/>
</svg>
